<?xml version="1.0" standalone="no"?>
<!DOCTYPE svg PUBLIC "-//W3C//DTD SVG 20010904//EN"
 "http://www.w3.org/TR/2001/REC-SVG-20010904/DTD/svg10.dtd">
<svg version="1.0" xmlns="http://www.w3.org/2000/svg"
 width="960.000000pt" height="614.000000pt" viewBox="0 0 960.000000 614.000000"
 preserveAspectRatio="xMidYMid meet">
<metadata>
Created by potrace 1.15, written by Peter Selinger 2001-2017
</metadata>
<g transform="translate(0.000000,614.000000) scale(0.100000,-0.100000)"
fill="#000000" stroke="none">
<path d="M0 3070 l0 -3070 4800 0 4800 0 0 3070 0 3070 -4800 0 -4800 0 0
-3070z m3168 1681 c2 -75 -1 -118 -9 -127 -12 -14 -19 -169 -8 -186 3 -5 40
-12 82 -15 l77 -6 0 -75 c0 -72 -2 -78 -32 -109 -18 -18 -37 -33 -43 -33 -6 0
-23 -12 -37 -27 -28 -30 -47 -126 -28 -138 11 -7 14 -188 3 -199 -4 -3 -7
-224 -7 -489 l-1 -482 -152 -3 -153 -3 -2 612 c-3 600 -3 612 -23 623 -11 6
-41 27 -66 46 -26 19 -55 40 -65 46 -15 9 -16 15 -6 56 7 26 12 60 12 77 0 16
5 33 10 36 6 3 10 19 10 34 0 16 17 51 40 85 22 31 40 59 40 61 0 2 11 21 25
41 23 34 25 45 25 159 0 67 3 125 7 129 4 3 72 5 152 4 l146 -3 3 -114z m2742
78 c0 -21 -15 -42 -62 -88 -52 -50 -69 -61 -97 -61 -24 0 -44 -8 -63 -27 -23
-22 -28 -24 -34 -10 -12 32 0 52 33 55 26 3 32 8 35 33 5 32 -8 50 -18 25 -7
-18 -34 -22 -34 -6 0 6 5 20 12 33 6 12 14 29 18 37 4 8 22 18 41 21 19 4 44
10 56 15 12 5 43 8 68 6 42 -4 45 -6 45 -33z m-1848 -260 c25 -13 77 -70 78
-85 0 -5 13 -23 29 -38 25 -24 32 -26 48 -15 12 7 31 9 49 5 l29 -8 -27 -14
c-16 -8 -28 -23 -28 -34 0 -10 -4 -22 -10 -25 -13 -8 -13 -105 -1 -105 5 0 13
-25 17 -57 6 -48 4 -58 -12 -70 -27 -20 -46 -16 -42 8 3 21 -9 32 -43 42 -10
3 -19 22 -23 49 -16 103 -42 134 -70 83 -11 -20 -59 -85 -86 -117 -8 -10 -19
-18 -24 -18 -5 0 -20 -9 -32 -21 -17 -16 -29 -19 -58 -14 -20 4 -36 13 -36 21
0 7 21 35 46 61 25 26 50 56 55 67 34 74 118 186 139 186 29 0 24 23 -11 49
-28 21 -32 21 -48 7 -25 -23 -31 -20 -31 13 0 40 46 55 92 30z m-184 -111 c25
-32 24 -58 -6 -96 -16 -20 -32 -44 -36 -52 -3 -8 -20 -35 -36 -60 -16 -25 -39
-63 -51 -85 -12 -21 -37 -61 -55 -88 -47 -69 -46 -93 7 -101 23 -4 55 -14 71
-22 26 -14 29 -20 24 -46 -3 -17 -6 -50 -6 -74 0 -62 -26 -61 -28 2 -3 54 -16
84 -39 84 -26 0 -12 -173 17 -213 28 -37 20 -57 -25 -57 -19 0 -44 -5 -55 -12
-16 -10 -23 -9 -45 12 -14 13 -25 28 -25 33 0 6 -9 19 -20 31 -35 36 -80 93
-80 102 0 4 -8 16 -17 26 -14 16 -16 41 -15 178 1 146 3 161 22 180 11 11 20
24 20 30 0 5 13 38 30 72 25 54 36 66 72 82 24 10 51 22 60 27 10 5 26 9 36 9
10 0 27 7 38 15 10 8 31 15 46 15 15 0 30 5 33 10 9 14 51 12 63 -2z m-3078
-61 c61 -30 109 -61 115 -73 11 -22 35 -21 35 2 0 8 5 14 11 14 6 0 32 18 58
40 l47 40 92 0 92 0 0 -780 0 -780 -90 0 -90 0 -58 46 c-31 26 -58 52 -60 58
-2 6 -5 17 -7 24 -3 7 -35 -12 -86 -50 -112 -87 -146 -105 -167 -91 -10 6 -37
14 -60 18 -23 4 -44 11 -48 16 -3 5 -18 9 -34 9 -16 0 -31 4 -34 9 -3 5 -22
12 -41 15 -21 4 -38 14 -42 24 -3 9 -22 55 -43 102 -21 47 -45 101 -54 121 -8
20 -16 61 -17 93 -1 31 -6 59 -11 62 -4 3 -8 33 -8 68 0 34 -5 67 -10 72 -16
16 -8 518 9 569 7 22 18 66 24 97 7 31 15 60 20 64 4 4 7 19 7 33 1 26 40 81
59 81 5 0 31 22 58 50 26 27 53 50 59 50 6 0 21 11 34 25 20 21 32 25 79 25
47 -1 73 -10 161 -53z m1407 37 c26 -8 57 -19 68 -24 11 -4 36 -11 55 -14 67
-12 86 -26 100 -75 7 -25 16 -50 20 -56 4 -5 11 -31 14 -57 4 -26 11 -50 15
-53 18 -11 21 -91 22 -680 l1 -610 -109 -5 c-59 -3 -127 -4 -150 -2 l-43 3 0
558 c0 484 -2 560 -15 571 -8 7 -15 19 -15 26 0 8 -4 14 -10 14 -5 0 -16 12
-25 28 -9 15 -25 41 -35 57 -11 17 -23 38 -26 48 -10 27 -25 21 -95 -40 -37
-32 -74 -63 -84 -68 -16 -10 -17 -51 -18 -600 l-2 -590 -152 -3 -152 -3 2 778
2 778 90 3 c86 3 92 1 115 -23 13 -14 28 -25 34 -25 6 0 23 -14 38 -32 26 -30
28 -31 46 -15 10 9 24 17 30 17 6 0 23 10 39 23 15 13 35 27 43 31 8 4 33 18
55 31 47 29 77 31 142 9z m1801 -396 c10 -26 9 -36 -3 -55 -8 -12 -15 -29 -15
-38 0 -23 -41 -74 -55 -69 -6 3 -18 -2 -25 -10 -14 -18 -32 -12 -24 8 3 8 -3
20 -14 28 -16 11 -19 22 -14 66 5 58 24 66 28 13 1 -18 4 -34 6 -36 2 -2 14
11 26 30 19 27 21 37 12 54 -15 29 -5 41 33 41 27 0 35 -5 45 -32z m200 -811
c4 -30 -11 -64 -58 -137 -16 -25 -33 -52 -37 -60 -3 -8 -9 -17 -12 -20 -10 -8
-31 -44 -37 -62 -3 -9 -20 -22 -37 -28 -44 -17 -79 -31 -97 -40 -9 -4 -39 -11
-68 -15 -29 -4 -54 -11 -58 -16 -7 -12 -61 -12 -68 0 -3 5 -33 12 -66 16 -33
4 -63 11 -66 16 -3 5 -18 9 -34 9 -16 0 -32 5 -35 10 -3 6 -15 10 -26 10 -18
0 -19 8 -19 135 0 99 3 135 12 135 12 0 83 -23 123 -41 76 -32 127 -42 166
-30 22 7 44 9 50 6 16 -11 112 17 139 40 81 68 110 85 144 85 19 0 38 5 41 11
13 20 40 4 43 -24z m1777 -1597 l0 -1285 -150 0 -150 0 -3 1279 c-2 1017 0
1281 10 1288 7 4 76 7 153 5 l140 -2 0 -1285z m-725 945 c26 -13 30 -21 30
-55 0 -21 5 -42 10 -45 6 -3 10 -21 10 -39 0 -19 6 -49 14 -67 8 -19 16 -49
18 -68 3 -32 -1 -37 -47 -65 -78 -46 -104 -42 -210 38 -49 37 -91 73 -93 80
-2 11 99 171 140 224 14 17 93 15 128 -3z m-540 -394 l0 -169 34 -28 c18 -16
47 -40 65 -54 43 -34 42 -65 -9 -195 -30 -77 -44 -114 -56 -142 -8 -17 -14
-37 -14 -45 0 -8 -4 -18 -10 -24 -6 -6 -11 -225 -12 -594 l-3 -585 -144 -3
c-109 -2 -146 1 -153 10 -4 7 -8 283 -8 613 1 540 -1 601 -15 610 -9 6 -39 27
-67 48 -28 21 -57 41 -66 46 -12 7 -13 22 -7 85 3 42 11 78 16 82 5 3 9 16 9
28 0 27 11 49 65 130 68 99 67 99 66 222 -1 63 1 119 4 124 4 6 69 10 156 10
l149 0 0 -169z m1920 -7 c4 -151 7 -175 24 -193 11 -12 24 -21 30 -21 20 0 76
-64 76 -87 0 -13 -9 -42 -19 -66 -11 -23 -23 -58 -27 -77 -3 -19 -10 -41 -15
-50 -4 -8 -20 -42 -36 -75 l-28 -60 -5 -600 -5 -600 -150 0 -150 0 -5 613 -5
612 -26 18 c-129 84 -139 93 -139 127 0 19 5 37 10 40 6 3 10 21 10 40 0 19 5
37 10 40 6 3 10 21 10 40 0 20 9 45 23 62 13 15 27 35 30 43 8 18 30 53 37 60
33 31 40 64 40 185 l0 126 153 -3 152 -3 5 -171z m-2793 -225 c70 -29 93 -40
93 -47 1 -4 24 -23 52 -42 90 -62 89 -60 86 -153 -3 -77 -4 -82 -26 -85 -13
-2 -31 2 -40 10 -37 29 -63 38 -80 30 -9 -5 -54 -12 -99 -15 -45 -3 -86 -8
-92 -12 -7 -4 -11 -55 -11 -137 0 -108 3 -135 17 -150 9 -10 21 -18 27 -18 7
0 38 -27 71 -60 33 -33 62 -60 66 -60 15 0 72 -62 93 -99 23 -44 84 -152 103
-185 9 -14 13 -69 13 -164 0 -162 7 -143 -98 -265 -85 -99 -104 -117 -122
-117 -9 0 -20 -4 -26 -9 -5 -5 -29 -11 -54 -14 -25 -3 -76 -11 -113 -18 l-68
-11 -110 53 -109 54 0 113 c0 93 3 114 16 119 8 3 20 1 27 -6 6 -6 23 -11 38
-11 15 0 31 -5 34 -10 4 -6 14 -10 23 -9 21 3 71 -9 94 -22 10 -5 32 -9 50 -9
30 0 36 6 61 53 15 29 27 57 27 62 1 6 9 28 20 50 25 51 25 71 0 92 -11 10
-20 22 -20 27 0 10 -50 68 -181 209 -42 45 -94 102 -115 126 -22 25 -54 59
-71 76 -30 29 -33 37 -33 93 0 33 -4 64 -10 67 -5 3 -10 38 -10 78 0 67 4 78
63 198 49 101 67 129 86 134 14 3 43 15 64 25 22 11 56 23 76 26 20 4 49 15
66 26 34 21 81 23 122 7z m3571 -5 c23 -3 45 -10 48 -15 3 -5 13 -9 22 -9 26
0 122 -203 122 -258 0 -38 -2 -42 -26 -42 -14 0 -44 11 -68 24 -60 33 -76 35
-118 14 -50 -24 -66 -23 -74 6 -4 17 -14 26 -32 28 -30 4 -43 28 -14 28 11 0
25 6 31 14 9 11 6 18 -19 36 -29 20 -30 25 -30 92 0 102 6 105 158 82z m-6634
-13 c3 -4 43 -11 88 -15 46 -4 87 -11 92 -16 6 -6 17 -10 26 -10 9 0 28 -12
42 -27 114 -123 138 -151 138 -160 0 -5 11 -20 24 -33 14 -13 25 -34 25 -49 0
-30 14 -114 32 -186 16 -65 24 -554 9 -569 -5 -5 -10 -25 -10 -42 0 -18 -4
-35 -9 -38 -7 -5 -23 -68 -25 -103 -1 -6 -5 -15 -9 -19 -4 -4 -7 -20 -7 -35 0
-18 -11 -38 -35 -60 -19 -19 -35 -38 -35 -44 0 -6 -22 -33 -50 -60 -27 -27
-50 -53 -50 -58 0 -18 -37 -45 -70 -51 -19 -4 -85 -12 -147 -18 -107 -10 -113
-10 -147 11 -20 13 -81 44 -135 71 -84 41 -101 54 -107 77 -4 15 -22 57 -40
92 -19 35 -34 71 -34 81 0 9 -5 21 -12 28 -6 6 -15 33 -20 59 -5 26 -14 73
-20 103 -14 74 -22 459 -9 485 5 11 12 38 15 60 9 78 23 136 34 147 7 7 12 19
12 28 0 9 16 47 35 85 19 38 37 81 40 96 7 31 19 43 55 54 14 4 36 16 50 27
54 41 116 78 133 78 9 0 17 5 17 10 0 12 97 14 104 1z m1361 -1 c3 -5 16 -10
28 -10 12 0 35 -7 51 -15 15 -8 36 -15 45 -15 9 0 38 -8 65 -18 46 -16 50 -21
67 -72 10 -30 19 -65 19 -77 0 -12 5 -25 10 -28 6 -3 10 -16 10 -29 0 -12 6
-28 13 -34 9 -10 12 -154 12 -650 l0 -637 -147 -3 -148 -3 0 555 0 555 -66 98
c-36 54 -70 103 -76 110 -11 14 -10 15 -92 -57 -28 -25 -60 -50 -71 -56 -20
-11 -20 -24 -25 -605 l-5 -594 -145 0 -145 0 0 780 0 780 85 3 c81 3 87 1 110
-23 13 -14 28 -25 34 -25 5 0 25 -14 42 -31 l32 -31 30 21 c17 11 33 21 36 21
3 0 31 17 63 38 32 21 67 43 78 49 25 15 82 16 90 3z m3160 -77 c-8 -69 -8
-181 0 -321 4 -69 3 -108 -5 -117 -6 -7 -13 -42 -17 -78 -6 -71 1 -88 67 -172
27 -34 30 -45 30 -106 0 -37 -4 -71 -10 -74 -6 -4 -10 -124 -10 -326 l0 -320
-147 3 -148 3 -3 770 c-1 424 0 776 3 783 3 9 38 12 126 12 l121 0 -7 -57z
m1803 11 c13 -9 22 -26 22 -40 0 -14 7 -41 15 -61 10 -24 15 -71 15 -150 0
-94 4 -127 24 -186 21 -64 30 -94 41 -147 9 -40 27 -106 57 -208 11 -37 10
-44 -5 -59 -16 -16 -18 -16 -40 5 -13 12 -28 22 -34 22 -12 0 -74 68 -163 180
-36 45 -77 96 -92 114 -26 32 -27 36 -27 170 0 75 3 145 8 154 18 33 41 90 41
99 0 23 34 74 63 98 38 29 45 30 75 9z m454 -761 c26 -26 48 -53 48 -60 0 -11
10 -38 42 -108 5 -11 7 -92 6 -179 l-3 -159 -30 -3 c-44 -5 -60 3 -45 21 9 11
9 23 -4 57 -17 47 -39 279 -29 305 4 11 -3 24 -22 39 -27 21 -28 25 -15 48 12
23 11 28 -4 45 -16 18 -15 41 2 41 3 0 28 -21 54 -47z m-566 -441 c5 -5 38
-17 74 -26 36 -10 75 -23 88 -29 27 -13 122 -13 131 -1 11 16 69 32 95 27 19
-4 26 -12 26 -27 0 -12 10 -44 23 -72 28 -58 57 -145 57 -168 0 -18 -15 -21
-25 -6 -8 13 -93 3 -113 -13 -20 -16 -208 -15 -224 1 -6 6 -24 12 -39 12 -15
0 -31 5 -34 10 -3 6 -17 10 -31 10 -14 0 -34 5 -45 10 -17 10 -19 22 -19 145
0 104 3 135 13 135 7 0 17 -4 23 -8z"/>
<path d="M723 4178 c-28 -21 -83 -110 -83 -136 0 -6 -11 -32 -25 -58 l-25 -47
0 -288 c0 -295 0 -299 40 -379 4 -9 11 -30 14 -48 4 -17 12 -34 17 -37 5 -4 9
-15 9 -25 0 -33 47 -60 105 -60 49 0 55 3 74 33 12 17 34 52 50 75 17 25 28
53 25 65 -2 11 0 25 5 31 5 6 11 31 14 56 3 25 11 68 18 95 14 58 21 275 9
290 -8 9 -11 39 -26 205 -5 51 -12 72 -35 101 -16 20 -29 40 -29 44 0 3 -19
29 -42 56 -46 55 -67 60 -115 27z"/>
<path d="M737 1672 c-25 -11 -40 -25 -43 -42 -4 -14 -21 -55 -39 -91 -18 -37
-36 -80 -40 -98 -3 -17 -11 -33 -16 -36 -15 -10 -11 -504 6 -545 7 -19 21 -57
31 -85 9 -27 25 -66 36 -86 10 -20 18 -43 18 -52 0 -16 57 -47 88 -47 11 0 29
10 39 23 10 12 29 29 43 38 64 42 78 64 84 130 3 35 8 93 12 129 3 36 10 69
15 74 13 14 12 373 -1 381 -5 3 -10 34 -10 69 0 54 -3 66 -25 86 -14 13 -25
28 -25 34 0 14 -115 136 -126 135 -5 0 -26 -8 -47 -17z"/>
</g>
</svg>
